<?xml version="1.0" encoding="UTF-8" standalone="no"?>
<svg width="64px" height="19px" viewBox="0 0 64 19" version="1.1" xmlns="http://www.w3.org/2000/svg" xmlns:xlink="http://www.w3.org/1999/xlink" xmlns:sketch="http://www.bohemiancoding.com/sketch/ns">
    <!-- Generator: Sketch 3.3.3 (12072) - http://www.bohemiancoding.com/sketch -->
    <title>Group</title>
    <desc>Created with Sketch.</desc>
    <defs></defs>
    <g id="Page-1" stroke="none" stroke-width="1" fill="none" fill-rule="evenodd" sketch:type="MSPage">
        <g id="icode" sketch:type="MSArtboardGroup" transform="translate(-143.000000, -16.000000)" fill="#FFFFFF">
            <g id="导航" sketch:type="MSLayerGroup">
                <g id="logo" transform="translate(37.000000, 12.000000)" sketch:type="MSShapeGroup">
                    <g id="Group" transform="translate(106.000000, 2.000000)">
                        <circle id="Oval-17" cx="2" cy="12" r="2"></circle>
                        <path d="M14.546875,19.7734375 L15.8359375,19.7734375 L15.8359375,7.2265625 L14.546875,7.2265625 L14.546875,19.7734375 Z M14.546875,4.4765625 L15.8359375,4.4765625 L15.8359375,2.5859375 L14.546875,2.5859375 L14.546875,4.4765625 Z M31.4192708,14.015625 L32.8802083,14.4453125 C31.9635371,18.1119975 29.4713745,19.973958 25.4036458,20.03125 C20.4765378,19.6874983 17.8984386,16.8229436 17.6692708,11.4375 C17.9557306,5.70830469 20.6197664,2.70052227 25.6614583,2.4140625 C28.9843916,2.52864641 31.2760353,4.19008813 32.5364583,7.3984375 L31.0755208,7.7421875 C30.1015576,5.10675766 28.2395971,3.73177141 25.4895833,3.6171875 C21.4791466,3.96093922 19.3307306,6.51039289 19.0442708,11.265625 C19.2734386,16.0781491 21.3645635,18.6562483 25.3177083,19 C28.6406416,19 30.6744754,17.3385583 31.4192708,14.015625 L31.4192708,14.015625 Z M43.5651041,14.7890625 L43.5651041,12.296875 C43.1640605,12.9843784 41.7604287,13.4713527 39.3541666,13.7578125 C36.432277,13.9869803 35.0572908,14.9609289 35.2291666,16.6796875 C35.1145827,18.2838622 36.231759,19.057292 38.5807291,19 C41.6744946,18.8854161 43.3359363,17.4817843 43.5651041,14.7890625 L43.5651041,14.7890625 Z M35.5729166,11.0078125 L34.3697916,10.578125 C34.8854192,8.11457102 36.7187342,6.91145805 39.8697916,6.96875 C43.3073088,6.85416609 44.940105,8.34373453 44.7682291,11.4375 L44.7682291,17.0234375 C44.7109372,18.2265685 44.9401015,19.1145805 45.4557291,19.6875 L44.1666666,19.6875 C43.708331,19.1718724 43.4791666,18.3984427 43.4791666,17.3671875 C42.5624954,19.0859461 40.7291804,19.973958 37.9791666,20.03125 C35.4010287,19.973958 34.0833336,18.8567817 34.0260416,16.6796875 C34.0260416,14.3880094 35.5442556,13.0703142 38.5807291,12.7265625 C41.4453268,12.4973947 43.078123,12.0390659 43.4791666,11.3515625 C43.6510425,9.00259242 42.4479295,7.88541609 39.8697916,8 C37.3489457,7.94270805 35.9166683,8.94530219 35.5729166,11.0078125 L35.5729166,11.0078125 Z M49.0078124,5.6796875 L49.0078124,7.2265625 L51.8437499,7.2265625 L51.8437499,8.34375 L49.0078124,8.34375 L49.0078124,19.6875 L47.7187499,19.6875 L47.7187499,8.34375 L45.4843749,8.34375 L45.4843749,7.2265625 L47.7187499,7.2265625 L47.7187499,5.59375 C47.661458,3.41665578 48.606761,2.35677055 50.5546874,2.4140625 C51.4713587,2.47135445 52.2447885,2.64322773 52.8749999,2.9296875 L52.5312499,3.7890625 C52.1302063,3.55989469 51.6145864,3.4453125 50.9843749,3.4453125 C49.5520761,3.33072859 48.8932285,4.07551281 49.0078124,5.6796875 L49.0078124,5.6796875 Z M53.2473958,12.984375 L62.0130208,12.984375 C61.9557288,9.77602563 60.5234515,8.14322945 57.7161458,8.0859375 C54.9088401,8.25781336 53.4192716,9.89060953 53.2473958,12.984375 L53.2473958,12.984375 Z M62.0130208,15.9921875 L63.3020833,16.3359375 C62.6145798,18.7994915 60.7812648,20.03125 57.8020833,20.03125 C53.9062304,19.8593741 51.9010422,17.7396037 51.7864583,13.671875 C51.9583341,9.43227047 53.9348768,7.19791781 57.7161458,6.96875 C61.3828308,7.08333391 63.2734368,9.34633211 63.3880208,13.7578125 L63.3880208,14.015625 L53.1614583,14.015625 C53.2760422,17.2239744 54.7942561,18.8854161 57.7161458,19 C60.1224078,19 61.5546851,17.9974059 62.0130208,15.9921875 L62.0130208,15.9921875 Z" id="iCafe"></path>
                    </g>
                </g>
            </g>
        </g>
    </g>
</svg>