<?xml version="1.0" encoding="UTF-8" standalone="no"?>
<svg width="105px" height="21px" viewBox="0 0 105 21" version="1.1" xmlns="http://www.w3.org/2000/svg" xmlns:xlink="http://www.w3.org/1999/xlink">
    <!-- Generator: Sketch 3.8.3 (29802) - http://www.bohemiancoding.com/sketch -->
    <title>Group</title>
    <desc>Created with Sketch.</desc>
    <defs></defs>
    <g id="icafe" stroke="none" stroke-width="1" fill="none" fill-rule="evenodd">
        <g id="icafe菜单" transform="translate(-45.000000, -14.000000)">
            <g id="一级栏目展开效果-copy-4" transform="translate(-150.000000, 0.000000)">
                <g id="Group" transform="translate(195.000000, 14.000000)">
                    <g id="Group-Copy-2">
                        <polygon id="Path-96" fill="#CECCD5" points="12.4444444 0.00108235677 0 7.0047185 0 13.2235328 14.0084061 20.2283073 14.0084061 14.0058204 5.95870929 9.98127933 12.4444444 6.22631409"></polygon>
                        <polygon id="Path-97" fill="#CECCD5" points="14 14.00507 14 20.2233615 28 13.2247857 28 7.00124376 19.4444444 2.33003879 14 4.98122427 14 11.203712 19.4444444 8.55945748 22.1439817 10.0243202"></polygon>
                        <polygon id="Path-98" fill="#E9E8EC" points="0 7.00369331 5.94726562 9.96213841 0 13.2196018"></polygon>
                        <polygon id="Path-99" fill="#E9E8EC" points="27.9999999 7.00196248 22.1104601 9.99484956 27.9999999 13.2239159"></polygon>
                    </g>
                    <path d="M35,4.27888446 L47.940239,4.27888446 L47.940239,6.11952191 L43.0876494,6.11952191 L42.8087649,7.29083665 L47.3824701,7.29083665 L47.3824701,15.2669323 C47.4568397,16.4196605 46.8433,16.9588317 45.5418327,16.8844622 L35.6135458,16.8844622 L35.6135458,7.29083665 L40.1314741,7.29083665 L40.3545817,6.11952191 L35,6.11952191 L35,4.27888446 Z M37.7888446,11.1394422 L45.2071713,11.1394422 L45.2071713,8.96414343 L37.7888446,8.96414343 L37.7888446,11.1394422 Z M44.6494024,15.2111554 C45.0956198,15.2483402 45.2815409,15.0438269 45.2071713,14.5976096 L45.2071713,13.0358566 L37.7888446,13.0358566 L37.7888446,15.2111554 L44.6494024,15.2111554 Z M54.9681275,4.61354582 L54.9681275,4.05577689 L57.0318725,4.05577689 L57.0318725,4.61354582 L62.1633466,4.61354582 L62.1633466,6.1752988 L51.8446215,6.1752988 L51.8446215,15.3784861 C51.770252,16.1593665 51.3240413,16.6241692 50.5059761,16.7729084 L49.501992,16.7729084 L49.501992,15.3227092 L49.8366534,15.3227092 C49.9853925,15.3227092 50.059761,15.2669328 50.059761,15.1553785 L50.059761,4.61354582 L54.9681275,4.61354582 Z M52.9601594,8.62948207 L52.2908367,8.62948207 L52.2908367,7.06772908 L52.9043825,7.06772908 L52.9043825,6.45418327 L54.7450199,6.45418327 L54.7450199,7.01195219 L59.7091633,7.01195219 L59.7091633,6.50996016 L61.5498008,6.50996016 L61.5498008,6.9561753 L62.1633466,6.9561753 L62.1633466,8.51792829 L61.5498008,8.51792829 L61.5498008,9.9123506 C61.4754312,10.6188614 61.0106284,10.9907037 60.1553785,11.0278884 L52.9601594,11.0278884 L52.9601594,8.62948207 Z M54.8007968,8.57370518 L54.8007968,9.41035857 L59.5418327,9.41035857 C59.653387,9.37317378 59.7091633,9.29880534 59.7091633,9.187251 L59.7091633,8.57370518 L54.8007968,8.57370518 Z M62.0517928,11.4741036 L62.0517928,12.7569721 L58.6494024,14.8207171 L58.9840637,15.0438247 C59.2071724,15.155379 59.467462,15.2111554 59.7649402,15.2111554 L62.1075697,15.2111554 L62.1075697,16.7171315 L59.0956175,16.7171315 C58.6122154,16.7543163 58.2403731,16.6799478 57.9800797,16.4940239 L56.752988,15.936255 L55.6932271,16.4940239 C55.3585641,16.6799478 54.9123534,16.7729084 54.3545817,16.7729084 L52.0677291,16.7729084 L52.0677291,15.2111554 L53.685259,15.2111554 C54.0571068,15.2111554 54.3173963,15.1739712 54.4661355,15.0996016 L54.9681275,14.876494 L52.625498,13.4820717 L52.6812749,13.3705179 L55.8047809,13.3705179 L56.6972112,13.87251 L58.314741,12.8685259 L52.4023904,12.8685259 L52.4023904,11.4741036 L62.0517928,11.4741036 Z M72.87251,6.11952191 C72.4634774,6.60292406 72.0916351,6.84462151 71.7569721,6.84462151 L70.4741036,6.84462151 L70.4741036,5.28286853 C70.8459514,5.32005331 71.0876488,5.17131641 71.1992032,4.83665339 L71.5896414,4 L73.8207171,4 L73.5976096,4.55776892 L76.5537849,4.55776892 L76.5537849,6.11952191 L72.87251,6.11952191 Z M63.8366534,6.11952191 L63.8366534,4.55776892 L65.8446215,4.55776892 L65.8446215,4.05577689 L67.9083665,4.05577689 L67.9083665,4.55776892 L70.1952191,4.55776892 L70.1952191,6.11952191 L69.5816733,6.11952191 L69.1912351,6.11952191 L69.3585657,7.01195219 C69.3957505,7.23506088 69.5444874,7.34661355 69.8047809,7.34661355 L70.250996,7.34661355 L70.250996,8.74103586 L68.689243,8.74103586 C68.0942865,8.74103586 67.7596285,8.48074629 67.685259,7.96015936 L67.3505976,6.11952191 L66.7928287,6.11952191 L66.5139442,7.73705179 C66.4395747,8.48074741 66.0119561,8.81540542 65.2310757,8.74103586 L63.8366534,8.74103586 L63.8366534,7.23505976 L64.4501992,7.23505976 C64.7848622,7.27224454 64.9707833,7.12350765 65.0079681,6.78884462 L65.1752988,6.11952191 L63.8366534,6.11952191 Z M63.9482072,9.41035857 L66.2350598,9.41035857 L67.1832669,11.1394422 L67.9083665,9.52191235 L70.0278884,9.52191235 L68.3545817,13.2031873 L69.3027888,14.7091633 C69.3399736,14.7463481 69.3771578,14.8021245 69.4143426,14.876494 C69.525897,15.0252331 69.6560418,15.0996016 69.8047809,15.0996016 L70.1394422,15.0996016 L70.1394422,16.5498008 L68.7450199,16.5498008 C68.3731721,16.5498008 68.0942904,16.419656 67.9083665,16.1593625 L67.2390438,15.0438247 L66.625498,16.0478088 C66.4767589,16.4568414 66.1049167,16.6241704 65.5099602,16.5498008 L63.8924303,16.5498008 L63.8924303,15.0996016 L64.6733068,15.0996016 C64.8964155,15.0996016 65.0451524,15.0252331 65.1195219,14.876494 L66.123506,13.1474104 L63.9482072,9.41035857 Z M70.5298805,7.29083665 L72.4820717,7.29083665 L73.5976096,10.0796813 L74.6015936,7.23505976 L76.4422311,7.23505976 L74.6015936,12.5338645 L75.438247,14.374502 C75.6241709,14.8579041 75.7729078,15.0810095 75.8844622,15.0438247 L76.3306773,15.0438247 L76.3306773,16.4940239 L74.8247012,16.4940239 C74.5272229,16.4940239 74.2855255,16.2523265 74.0996016,15.7689243 L73.6533865,14.6533865 L73.2071713,15.7689243 C73.0584322,16.3638808 72.7051821,16.6241704 72.1474104,16.5498008 L70.6414343,16.5498008 L70.6414343,15.0438247 L71.310757,15.0438247 C71.5338657,15.0438247 71.6826025,14.8764957 71.7569721,14.5418327 L72.5936255,12.5896414 L70.5298805,7.29083665 Z M83.4701195,4.89243028 L83.4701195,4.33466135 L85.7011952,4.33466135 L85.7011952,4.89243028 L90.8326693,4.89243028 L90.8326693,6.45418327 L85.9243028,6.45418327 L84.5856574,7.79282869 L87.0956175,7.79282869 L87.0956175,9.35458167 L85.812749,9.35458167 L84.1952191,11.1952191 L84.9203187,11.1952191 C85.1434274,11.2324039 85.236388,11.1208512 85.1992032,10.8605578 L85.1992032,10.4701195 L87.0398406,10.4701195 L87.0398406,11.9203187 C87.0026559,12.4409057 86.5936294,12.7197873 85.812749,12.7569721 L81.685259,12.7569721 L81.685259,11.0278884 L83.3585657,9.35458167 L81.7968127,9.35458167 L81.7968127,7.73705179 L83.1354582,6.45418327 L78.1155378,6.45418327 L78.1155378,4.89243028 L83.4701195,4.89243028 Z M80.123506,9.35458167 C79.4913647,9.35458167 79.1009304,9.16866056 78.9521912,8.79681275 L78.3386454,7.01195219 L80.4023904,7.01195219 L80.625498,7.62549801 C80.6998676,7.73705235 80.7928281,7.79282869 80.9043825,7.79282869 L81.4063745,7.79282869 L81.4063745,9.35458167 L80.123506,9.35458167 Z M87.4860558,7.84860558 L87.9880478,7.84860558 C88.1367869,7.84860558 88.2297475,7.79282924 88.2669323,7.6812749 L88.4900398,7.01195219 L90.5537849,7.01195219 L90.0517928,8.79681275 C89.9402385,9.16866056 89.5126199,9.35458167 88.7689243,9.35458167 L87.4860558,9.35458167 L87.4860558,7.84860558 Z M78.2270916,11.1952191 L78.8406375,11.1952191 C78.9521918,11.1952191 79.0451524,11.1394428 79.1195219,11.0278884 L79.5099602,9.9123506 L81.5179283,9.9123506 L81.0159363,12.0318725 C80.7928276,12.5896442 80.4023932,12.8499338 79.8446215,12.812749 L78.2270916,12.812749 L78.2270916,11.1952191 Z M89.2151394,12.812749 C88.5458134,12.8499338 88.155379,12.55246 88.0438247,11.9203187 L87.4302789,9.9123506 L89.438247,9.9123506 L89.7729084,10.8605578 C89.8472779,11.0092969 89.9588306,11.0836653 90.1075697,11.0836653 L90.6653386,11.0836653 L90.6653386,12.812749 L89.2151394,12.812749 Z M83.4143426,14.0956175 L83.4143426,13.2589641 L85.4780876,13.2589641 L85.4780876,14.0956175 L90.8326693,14.0956175 L90.8326693,15.6573705 L85.4780876,15.6573705 L85.4780876,16.8844622 L83.3585657,16.8844622 L83.3585657,15.6573705 L78.059761,15.6573705 L78.059761,14.0956175 L83.4143426,14.0956175 Z M105,6.34262948 L92.5059761,6.34262948 L92.5059761,4.55776892 L105,4.55776892 L105,6.34262948 Z M92.5059761,15.6015936 L94.4023904,10.6932271 L92.5059761,10.6932271 L92.5059761,8.90836653 L105,8.90836653 L105,10.6932271 L96.4103586,10.6932271 L94.7370518,15.0996016 L102.768924,15.0996016 C102.917663,15.0996016 102.992032,15.0252331 102.992032,14.876494 L102.992032,12.812749 L104.944223,12.812749 L104.944223,15.4900398 C104.944223,16.3452898 104.516605,16.7729084 103.661355,16.7729084 L92.5059761,16.7729084 L92.5059761,15.6015936 Z" id="百度效率云-copy" fill="#FFFFFF"></path>
                </g>
            </g>
        </g>
    </g>
</svg>