<?xml version="1.0" encoding="utf-8"?>
<!-- Generator: Adobe Illustrator 17.0.0, SVG Export Plug-In . SVG Version: 6.00 Build 0)  -->
<!DOCTYPE svg PUBLIC "-//W3C//DTD SVG 1.1//EN" "http://www.w3.org/Graphics/SVG/1.1/DTD/svg11.dtd">
<svg version="1.1" id="图层_1" xmlns:sketch="http://www.bohemiancoding.com/sketch/ns"
	 xmlns="http://www.w3.org/2000/svg" xmlns:xlink="http://www.w3.org/1999/xlink" x="0px" y="0px" width="100px" height="24px"
	 viewBox="0 0 100 24" enable-background="new 0 0 100 24" xml:space="preserve">
<title>logo－白色</title>
<desc>Created with Sketch.</desc>
<g id="Page-1" sketch:type="MSPage">
	<g id="讨论分享-UD框架" transform="translate(-70.000000, -11.000000)" sketch:type="MSArtboardGroup">
		<g id="logo_xFF0D_白色-" transform="translate(70.000000, 11.000000)">
			<g enable-background="new    ">
				<path fill="#FFFFFF" d="M34.6,3.94c0.468,0,0.862,0.16,1.183,0.48c0.32,0.321,0.481,0.711,0.481,1.17
					c0,0.46-0.161,0.85-0.481,1.17c-0.321,0.321-0.711,0.481-1.17,0.481s-0.849-0.165-1.17-0.494s-0.481-0.715-0.481-1.157
					c0-0.441,0.16-0.827,0.481-1.157C33.764,4.104,34.149,3.94,34.6,3.94z M35.692,23.44h-2.158V9.27h2.158V23.44z"/>
				<path fill="#FFFFFF" d="M57.142,19.956c-2.046,2.635-4.854,3.952-8.424,3.952c-3.016,0-5.486-0.953-7.41-2.86
					c-1.924-1.906-2.886-4.315-2.886-7.228c0-1.803,0.446-3.467,1.339-4.992c0.893-1.525,2.127-2.721,3.705-3.588
					c1.577-0.867,3.28-1.3,5.109-1.3c1.829,0,3.466,0.351,4.914,1.053s2.656,1.729,3.627,3.081L55.4,9.4
					c-1.804-2.185-4.031-3.276-6.683-3.276c-2.167,0-4.035,0.763-5.603,2.288c-1.569,1.525-2.353,3.393-2.353,5.603
					s0.767,4.057,2.301,5.538c1.534,1.482,3.523,2.224,5.967,2.224s4.567-1.049,6.371-3.146L57.142,19.956z"/>
				<path fill="#FFFFFF" d="M74.25,23.44h-2.106v-2.08c-1.543,1.698-3.319,2.548-5.33,2.548s-3.731-0.741-5.161-2.224
					c-1.43-1.481-2.145-3.25-2.145-5.304s0.719-3.812,2.158-5.278c1.438-1.464,3.193-2.196,5.264-2.196
					c2.072,0,3.81,0.841,5.214,2.521V9.27h2.106V23.44z M66.969,21.906c1.439,0,2.679-0.521,3.719-1.561s1.561-2.335,1.561-3.887
					c0-1.551-0.512-2.851-1.535-3.9c-1.022-1.048-2.274-1.572-3.756-1.572c-1.482,0-2.734,0.542-3.758,1.625
					s-1.533,2.361-1.533,3.835s0.52,2.752,1.56,3.835S65.514,21.906,66.969,21.906z"/>
				<path fill="#FFFFFF" d="M83.947,6.488c-0.832-0.347-1.481-0.521-1.949-0.521c-0.469,0-0.771,0.152-0.91,0.455
					c-0.139,0.304-0.208,0.811-0.208,1.521V9.27h2.886v1.872H80.88V23.44h-2.158V11.142h-1.794V9.27h1.794V7.658
					c0-1.283,0.238-2.224,0.715-2.821s1.226-0.896,2.249-0.896c0.555,0,1.309,0.13,2.262,0.39V6.488z"/>
				<path fill="#FFFFFF" d="M100.016,16.732H87.588c0.086,1.56,0.61,2.812,1.572,3.757s2.11,1.417,3.445,1.417
					c2.271,0,4.004-1.118,5.199-3.354l1.82,0.937c-0.814,1.508-1.777,2.622-2.886,3.341c-1.109,0.72-2.436,1.079-3.978,1.079
					c-2.133,0-3.893-0.732-5.278-2.197c-1.388-1.465-2.08-3.228-2.08-5.291c0-2.062,0.697-3.83,2.093-5.304
					c1.395-1.474,3.124-2.21,5.188-2.21c2.062,0,3.787,0.697,5.174,2.093S99.963,14.306,100.016,16.732z M97.623,14.834
					c-0.26-1.213-0.85-2.158-1.768-2.834c-0.919-0.676-1.977-1.014-3.172-1.014c-2.428,0-4.039,1.282-4.836,3.848H97.623z"/>
			</g>
			<g id="logo-copy-2" sketch:type="MSShapeGroup">
				<rect id="Rectangle-489" x="4.3" y="22.054" fill="#FFFFFF" width="20.72" height="1.466"/>
				<rect id="Path" x="5.317" y="8.534" fill="#FFFFFF" width="18.7" height="1.466"/>
				<path id="Path-335" fill="#FFFFFF" d="M13.814,0c0,0,0.742,0.299,0,1.727s-1.561,2.335-1.86,3.542
					c-0.299,1.206,0.133,2.07,1.382,1.638s-1.692,0.819,0.477-2.59S13.814,0,13.814,0z M16.759,1.727c0,0,0.559,0.225,0,1.302
					s-1.177,1.761-1.402,2.67s0.1,1.561,1.042,1.235c0.942-0.325-1.276,0.618,0.36-1.953S16.759,1.727,16.759,1.727z"/>
				<path id="Oval-113" fill="#FFFFFF" d="M24.858,8.534c0.117,0.624,0.179,1.268,0.179,1.926c0,5.722-4.638,10.36-10.36,10.36
					s-10.36-4.638-10.36-10.36c0-0.658,0.061-1.302,0.179-1.926h1.321C5.682,9.155,5.612,9.799,5.612,10.46
					c0,5.007,4.059,9.065,9.065,9.065s9.065-4.059,9.065-9.065c0-0.661-0.071-1.305-0.205-1.926H24.858z"/>
				<path id="Rectangle-497" fill="#FFFFFF" d="M4.809,11.323H3.361c-1.37,0-2.498,1.119-2.498,2.5c0,1.39,1.118,2.5,2.498,2.5
					h3.286c-0.033-0.085-0.088-0.169-0.168-0.249c-0.198-0.198-0.375-0.456-0.534-0.751H3.362c-0.828,0-1.499-0.666-1.499-1.5
					c0-0.828,0.665-1.5,1.499-1.5h1.62C4.903,11.926,4.846,11.577,4.809,11.323z"/>
			</g>
		</g>
	</g>
</g>
</svg>
